<?xml version="1.0" encoding="UTF-8"?>
<svg xmlns="http://www.w3.org/2000/svg" version="1.1" viewBox="0 0 1920 1080">
  <!-- Generator: Adobe Illustrator 29.2.1, SVG Export Plug-In . SVG Version: 2.1.0 Build 116)  -->
  <defs>
    <style>
      .st0 {
        stroke-linejoin: round;
      }

      .st0, .st1, .st2 {
        fill: none;
        stroke: #000;
        stroke-width: 3px;
      }

      .st0, .st2 {
        stroke-linecap: round;
      }

      .st1 {
        stroke-miterlimit: 10;
      }

      .st2 {
        stroke-linejoin: bevel;
      }
    </style>
  </defs>
  <g id="_Слой_2" data-name="Слой_2">
    <g>
      <path class="st1" d="M1013.5,466.44c-4.18,17.5-19.92,30.51-38.71,30.51-21.98,0-39.79-17.82-39.79-39.79s17.82-39.79,39.79-39.79c18.46,0,33.98,12.56,38.48,29.61"/>
      <line class="st1" x1="969.63" y1="417.37" x2="969.63" y2="496.96"/>
    </g>
  </g>
  <g id="_Слой_3" data-name="Слой_3">
    <path class="st0" d="M701.5,538.5c-11.52.01-19.88,0-24,0-15.35-.02-18.85-.07-24,2-2.59,1.04-10.54,4.37-16,13-4.41,6.97-4.95,13.84-5,17-.2,3.1-.13,8.23,2,14,1.38,3.74,5.22,12.06,14,17,4.15,2.34,7.64,2.93,14,4,4.92.83,8.51.94,19,1,5.98.03,12.68.04,20,0"/>
    <g>
      <line class="st0" x1="723.5" y1="537.5" x2="723.5" y2="607.5"/>
      <line class="st0" x1="791.5" y1="607.5" x2="723.5" y2="607.5"/>
    </g>
    <circle class="st0" cx="832.5" cy="572.5" r="36"/>
    <g>
      <line class="st0" x1="884.5" y1="608.5" x2="884.5" y2="540.5"/>
      <line class="st0" x1="952.5" y1="540.5" x2="952.5" y2="608.5"/>
      <line class="st0" x1="918.5" y1="574.5" x2="885.5" y2="541.5"/>
      <line class="st0" x1="952.5" y1="540.5" x2="918.5" y2="574.5"/>
    </g>
    <g>
      <line class="st0" x1="968.5" y1="608.5" x2="1002.5" y2="540.5"/>
      <line class="st0" x1="1037.5" y1="609.5" x2="1002.5" y2="540.5"/>
    </g>
    <g>
      <path class="st2" d="M1044.5,547.5h52.85c3.37,0,6.66,1.19,9.16,3.44,3.33,3.01,5.52,7.09,5.99,11.56.68,6.36-2.2,12.66-7.37,16.63-2.02,1.55-4.5,2.37-7.05,2.37h-53.58"/>
      <line class="st0" x1="1112" y1="616.39" x2="1077.64" y2="582.02"/>
    </g>
    <line class="st2" x1="1137.5" y1="543.5" x2="1137.5" y2="619.5"/>
    <g>
      <line class="st2" x1="1229.5" y1="581.5" x2="1162.5" y2="581.5"/>
      <line class="st2" x1="1229.5" y1="547.5" x2="1162.5" y2="547.5"/>
      <line class="st2" x1="1162.5" y1="581.5" x2="1162.5" y2="547.5"/>
      <line class="st2" x1="1162.5" y1="616.5" x2="1229.5" y2="616.5"/>
    </g>
    <g>
      <line class="st0" x1="1260.5" y1="546.5" x2="1260.5" y2="616.5"/>
      <line class="st0" x1="1328.5" y1="616.5" x2="1260.5" y2="616.5"/>
    </g>
    <circle class="st0" cx="974" cy="457" r="46.5"/>
  </g>
</svg>